<svg width="67" height="67" viewBox="0 0 67 67" fill="none" xmlns="http://www.w3.org/2000/svg">
<path d="M47.4584 61.4167H19.5417C18.3971 61.4167 17.4479 60.4676 17.4479 59.323C17.4479 58.1784 18.3971 57.2292 19.5417 57.2292H47.4584C48.6029 57.2292 49.5521 58.1784 49.5521 59.323C49.5521 60.4676 48.6029 61.4167 47.4584 61.4167Z" fill="#EDA415"/>
<path d="M56.8104 15.4101L45.6438 23.3942C44.1642 24.4551 42.0425 23.813 41.4004 22.1101L36.1242 8.04007C35.2308 5.61132 31.7971 5.61132 30.9038 8.04007L25.5996 22.0822C24.9575 23.813 22.8638 24.4551 21.3842 23.3663L10.2175 15.3822C7.98417 13.8188 5.025 16.0242 5.94625 18.6205L17.5596 51.1434C17.9504 52.2601 19.0113 52.9859 20.1838 52.9859H46.7883C47.9608 52.9859 49.0217 52.2321 49.4125 51.1434L61.0258 18.6205C61.975 16.0242 59.0158 13.8188 56.8104 15.4101ZM40.4792 41.1772H26.5208C25.3763 41.1772 24.4271 40.228 24.4271 39.0834C24.4271 37.9388 25.3763 36.9897 26.5208 36.9897H40.4792C41.6238 36.9897 42.5729 37.9388 42.5729 39.0834C42.5729 40.228 41.6238 41.1772 40.4792 41.1772Z" fill="#EDA415"/>
</svg>
